<svg xmlns="http://www.w3.org/2000/svg" xmlns:xlink="http://www.w3.org/1999/xlink" viewBox="0 0 854.88 863.01"><defs><linearGradient id="Nepojmenovaný_přechod_2" x1="-235.56" y1="-80.09" x2="-234.55" y2="-80.09" gradientTransform="matrix(-548.43, 311.55, 311.55, 548.43, -103677.11, 117291.4)" gradientUnits="userSpaceOnUse"><stop offset="0" stop-color="#b830ad"/><stop offset="0.01" stop-color="#b830ad"/><stop offset="0.28" stop-color="#5f1c65"/><stop offset="0.46" stop-color="#270f39"/><stop offset="0.54" stop-color="#321242"/><stop offset="0.66" stop-color="#501859"/><stop offset="0.83" stop-color="#7f2380"/><stop offset="1" stop-color="#b830ad"/></linearGradient><linearGradient id="Nepojmenovaný_přechod_3" x1="-236.18" y1="-78.44" x2="-235.18" y2="-78.44" gradientTransform="matrix(-43.23, 625.78, 625.78, 43.23, 39521.26, 151110.94)" gradientUnits="userSpaceOnUse"><stop offset="0" stop-color="#b830ad"/><stop offset="0.15" stop-color="#8e268b"/><stop offset="0.36" stop-color="#571a5f"/><stop offset="0.52" stop-color="#341243"/><stop offset="0.6" stop-color="#270f39"/><stop offset="0.67" stop-color="#381347"/><stop offset="0.8" stop-color="#661d6b"/><stop offset="0.98" stop-color="#ae2ea5"/><stop offset="1" stop-color="#b830ad"/></linearGradient><linearGradient id="Nepojmenovaný_přechod_4" x1="-234.97" y1="-76.84" x2="-233.96" y2="-76.84" gradientTransform="matrix(514.66, 309.91, 309.91, -514.66, 144784.98, 33640.86)" gradientUnits="userSpaceOnUse"><stop offset="0" stop-color="#b830ad"/><stop offset="0.5" stop-color="#270f39"/><stop offset="0.56" stop-color="#2f113f"/><stop offset="0.66" stop-color="#451651"/><stop offset="0.79" stop-color="#6a1e6e"/><stop offset="0.93" stop-color="#9b2996"/><stop offset="1" stop-color="#b830ad"/></linearGradient></defs><g id="Vrstva_2" data-name="Vrstva 2"><g id="Vrstva_1-2" data-name="Vrstva 1"><path d="M762.08,324.32,587,644.89H229.55L45.68,324.32,229.55,3.75l351-3.31ZM324.58,480.65h171L581,327,495.54,173.29h-171L239.1,327Z" style="fill:#110d16"/><path d="M580.59.44H230.35L45.68,324.32s165.18,104.89,270.45-100.4S580.59.44,580.59.44Z" style="fill:url(#Nepojmenovaný_přechod_2)"/><path d="M587,644.89,764.68,325.62,580.71,0S413.15,95.34,533.88,294.23,587,644.89,587,644.89Z" style="fill:url(#Nepojmenovaný_přechod_3)"/><path d="M45.68,324.32,224.84,646.61,587,644.89S595.23,446,367.71,454.29,45.68,324.32,45.68,324.32Z" style="fill:url(#Nepojmenovaný_přechod_4)"/><path d="M63.8,759v80.34H46.11V803.49H17.7v35.86H0V759H17.7v30.74H46.11V759Z"/><path d="M115.61,816.41H94.89q.81,6.29,3.78,8.44t9.84,2.15a207,207,0,0,0,21.42-1.28l1.63,10.71q-9,4.32-25,4.31t-23-7q-6.87-7-6.87-23.06,0-16.87,6.69-23.63t22.53-6.75q14.33,0,20.73,4.94t6.52,15.08q0,8-4.14,12T115.61,816.41ZM94.54,806.05h16.3c2.09,0,3.51-.51,4.25-1.52a7.46,7.46,0,0,0,1.1-4.42c0-2.72-.69-4.6-2.09-5.65s-4-1.57-7.69-1.57q-6.63,0-9.08,2.62T94.54,806.05Z"/><path d="M170.1,815.25h-.7l-13.62,24.1h-17.7l17.7-29.46L139.36,782h17.58l12.23,22.12h1.16L182.56,782h17.58l-16.42,27.94,17.7,29.46h-17.7Z"/><path d="M211,794.75l-1.63-11.64a168.8,168.8,0,0,1,29.93-2.79q11.64,0,17.11,4.71t5.47,16.36v38H248.22l-1.74-8.74q-8.62,10.14-21.19,10.13-8.28,0-13.51-4.36t-5.24-12.17v-5.82q0-6.87,4.66-10.71t12.92-3.84h20.49v-2.57c-.07-2.95-.75-4.92-2-5.93s-3.75-1.52-7.4-1.52Q225.64,793.82,211,794.75Zm12.58,24.92v2.21q0,5.94,6.75,5.94,7,0,14.32-5.59v-8H229.13Q223.54,814.32,223.54,819.67Z"/><path d="M333.45,789.51l-7.22.94a21.12,21.12,0,0,1,1.39,8.26q0,10-6,14.21t-21,4.19a83.23,83.23,0,0,1-9.89-.58,4.16,4.16,0,0,0-.53,4.19,4.27,4.27,0,0,0,3.9,2.67l20.84,2.45q8.85,1,12.75,5.12t3.9,12q0,10.93-6.57,14.78t-23.58,3.84q-17.7,0-24-3.66t-6.28-13.45a12.23,12.23,0,0,1,2-7.28q2-2.85,7-5.18a11.57,11.57,0,0,1,1.86-17.7q-8.5-3.94-8.5-15.48,0-10.12,6.06-14.32t21.07-4.19a57.77,57.77,0,0,1,15,1.63h18.51Zm-27.71,47.62-14.44-1.51q-3.74,3-3.73,6.64c0,2.79.86,4.58,2.57,5.35s5.39,1.17,11.06,1.17,9.41-.41,11.23-1.23,2.74-2.5,2.74-5.06c0-2-.59-3.3-1.75-3.84S309.7,837.6,305.74,837.13Zm-5.13-31q6.3,0,8.68-1.63t2.38-5.82q0-4.31-2.32-5.82t-8.74-1.51q-6.41,0-8.79,1.51t-2.38,5.82q0,4.2,2.38,5.82T300.61,806.16Z"/><path d="M369.42,780.32q16.06,0,22.77,6.92t6.69,23.46q0,16.54-6.69,23.35t-22.77,6.81q-16.19,0-22.88-6.81t-6.69-23.35q0-16.63,6.69-23.51T369.42,780.32Zm0,12.92q-6.87,0-9.19,3.49t-2.33,14c0,6.84.77,11.41,2.33,13.74s4.61,3.5,9.19,3.5c4.43,0,7.43-1.17,9-3.5s2.38-6.9,2.38-13.74-.77-11.54-2.33-13.91S373.92,793.24,369.42,793.24Z"/><path d="M424.61,782l1.28,8.5q12.47-10.14,24.57-10.13,7.8,0,11.93,4.07t4.14,11.88v43.08H449.41V801.62q0-3.84-1.22-5.29c-.82-1-2.27-1.46-4.37-1.46q-5.47,0-15.95,5.24v39.24H410.64V782Z"/><path d="M560.13,825.49l.82,13q-11,1.17-37.26,1.17-8,0-12.81-4.37T506,823.51V774.85q.12-7.46,4.89-11.82t12.81-4.37q26.31,0,37.26,1.17L560.13,773H529.28a5.45,5.45,0,0,0-4.19,1.4c-.86.93-1.28,2.44-1.28,4.54v12.22h32V804h-32v15.49c0,2.17.42,3.72,1.28,4.65s2.25,1.4,4.19,1.4Z"/><path d="M586.68,782l1.28,8.5q12.45-10.14,24.56-10.13,7.8,0,11.94,4.07t4.13,11.88v43.08H611.48V801.62q0-3.84-1.23-5.29c-.81-1-2.27-1.46-4.36-1.46q-5.48,0-15.95,5.24v39.24H572.71V782Z"/><path d="M664.8,793.47V820.6c0,2.17.47,3.69,1.4,4.54s2.56,1.28,4.89,1.28h7.33l1.87,12a49.08,49.08,0,0,1-16.19,2.33q-7.8,0-12.11-4.36t-4.3-12.17V793.47H637.56V782.53l10.13-.58V765.88H664.8V782h16v11.52Z"/><path d="M695.42,756.57h7.68q5,0,5,5v6.29q0,5-5,5h-7.68q-5,0-5-5v-6.29Q690.41,756.58,695.42,756.57Zm12.46,82.78H690.76V782h17.12Z"/><path d="M744.78,793.47V820.6c0,2.17.47,3.69,1.4,4.54s2.56,1.28,4.89,1.28h7.34l1.86,12a49,49,0,0,1-16.18,2.33q-7.82,0-12.11-4.36t-4.31-12.17V793.47H717.54V782.53l10.13-.58V765.88h17.11V782h16v11.52Z"/><path d="M827.68,782l-20.37,58.21a46.68,46.68,0,0,1-4,8.62,39.22,39.22,0,0,1-6.11,7.62,22.73,22.73,0,0,1-9.26,5.42,29.07,29.07,0,0,1-12.28.93l-1.4-10.13a31.92,31.92,0,0,0,10.94-4.83,19.72,19.72,0,0,0,6.18-8l.23-.46h-3.26a5.37,5.37,0,0,1-5.59-4.2L764,782h18.39l10.71,37.14c.7,2.71,1.28,5.59,1.75,8.61h1.51c.23-.93.62-2.38,1.17-4.36l1.16-4.25L809.29,782Z"/><path d="M854.88,768.83a14.08,14.08,0,0,1-1.68,6.84,12.34,12.34,0,0,1-4.78,4.86,15.45,15.45,0,0,1-14.4,0,12.4,12.4,0,0,1-4.78-4.86,14.08,14.08,0,0,1-1.68-6.84,14.31,14.31,0,0,1,1.68-6.94A12.26,12.26,0,0,1,834,757a15.45,15.45,0,0,1,14.4,0,12.2,12.2,0,0,1,4.78,4.88A14.31,14.31,0,0,1,854.88,768.83Zm-23.52,0a11.06,11.06,0,0,0,1.18,5.12,8.73,8.73,0,0,0,3.42,3.58,10.34,10.34,0,0,0,5.24,1.3,10.22,10.22,0,0,0,5.26-1.32,9,9,0,0,0,3.46-3.58,10.72,10.72,0,0,0,1.2-5.1,10.85,10.85,0,0,0-1.2-5.18,8.62,8.62,0,0,0-3.44-3.54,11.45,11.45,0,0,0-10.52,0,8.58,8.58,0,0,0-3.42,3.54A11.08,11.08,0,0,0,831.36,768.79ZM847.8,776h-4.44l-2.12-5.08h-1.8V776h-3.92V761.35h6a7.39,7.39,0,0,1,4.3,1.2,4,4,0,0,1,1.74,3.52,4.07,4.07,0,0,1-.68,2.34,5.23,5.23,0,0,1-1.8,1.66Zm-7-11.48h-1.32v3.32h1.32q2.52,0,2.52-1.68a1.33,1.33,0,0,0-.62-1.3A4,4,0,0,0,840.76,764.51Z" style="fill:#1d1d1b"/></g></g></svg>