<?xml version="1.0" encoding="UTF-8"?><svg id="Vrstva_2" xmlns="http://www.w3.org/2000/svg" xmlns:xlink="http://www.w3.org/1999/xlink" viewBox="0 0 1834.2 414"><defs><linearGradient id="Nepojmenovaný_přechod_2" x1="-15.62" y1="-1345.99" x2="-14.98" y2="-1345.99" gradientTransform="translate(411108.19 743037.7) rotate(150.4) scale(630.75 -630.75)" gradientUnits="userSpaceOnUse"><stop offset="0" stop-color="#b830ad"/><stop offset="0" stop-color="#b830ad"/><stop offset=".28" stop-color="#5e1b65"/><stop offset=".46" stop-color="#270f39"/><stop offset=".54" stop-color="#321141"/><stop offset=".66" stop-color="#4f1859"/><stop offset=".83" stop-color="#7f237f"/><stop offset="1" stop-color="#b830ad"/></linearGradient><linearGradient id="Nepojmenovaný_přechod_3" x1="-15.75" y1="-1346.37" x2="-15.11" y2="-1346.37" gradientTransform="translate(842229.38 68014.44) rotate(93.95) scale(627.27 -627.27)" gradientUnits="userSpaceOnUse"><stop offset="0" stop-color="#b830ad"/><stop offset=".15" stop-color="#8e268b"/><stop offset=".36" stop-color="#56195f"/><stop offset=".52" stop-color="#341143"/><stop offset=".6" stop-color="#270f39"/><stop offset=".67" stop-color="#381246"/><stop offset=".8" stop-color="#651d6b"/><stop offset=".98" stop-color="#ae2da5"/><stop offset="1" stop-color="#b830ad"/></linearGradient><linearGradient id="Nepojmenovaný_přechod_4" x1="-16.05" y1="-1345.99" x2="-15.41" y2="-1345.99" gradientTransform="translate(425389.76 -687519.97) rotate(31.05) scale(600.77 -600.77)" gradientUnits="userSpaceOnUse"><stop offset="0" stop-color="#b830ad"/><stop offset=".5" stop-color="#270f39"/><stop offset=".56" stop-color="#2f103f"/><stop offset=".66" stop-color="#451551"/><stop offset=".79" stop-color="#691e6e"/><stop offset=".93" stop-color="#9b2996"/><stop offset="1" stop-color="#b830ad"/></linearGradient></defs><g id="Vrstva_1-2"><g><g><path d="M655.71,148.53v121.18h-26.7v-54.09h-42.85v54.09h-26.7v-121.18h26.7v46.37h42.85v-46.37h26.7Z"/><path d="M755.46,249.17l2.46,16.16c-4.68,2.23-10.42,3.86-17.21,4.92-6.79,1.05-13.64,1.58-20.55,1.58-11.01,0-19.79-1.55-26.34-4.65-6.56-3.1-11.33-7.96-14.31-14.58-2.99-6.61-4.48-15.31-4.48-26.08,0-11.47,1.49-20.52,4.48-27.13,2.99-6.61,7.67-11.39,14.05-14.31,6.38-2.93,14.9-4.39,25.55-4.39,14.4,0,24.82,2.49,31.26,7.46,6.44,4.98,9.72,12.56,9.84,22.74,0,8.08-2.08,14.14-6.24,18.18-4.16,4.04-10.86,6.06-20.11,6.06h-31.26c.82,6.32,2.72,10.57,5.71,12.73,2.99,2.17,7.93,3.25,14.84,3.25,9.25,0,20.02-.64,32.32-1.93Zm-46.19-47.86c-2.34,1.11-4.07,3.07-5.18,5.88-1.11,2.81-1.79,6.91-2.02,12.29h24.59c3.16,0,5.3-.76,6.41-2.28,1.11-1.52,1.67-3.75,1.67-6.67,0-4.1-1.11-6.94-3.34-8.52-2.23-1.58-6.32-2.37-12.29-2.37-4.21,0-7.49,.56-9.83,1.67Z"/><path d="M816.06,233.36h-1.05l-20.55,36.36h-26.7l26.7-44.43-24.76-42.15h26.52l18.44,33.37h1.76l18.44-33.37h26.52l-24.76,42.15,26.7,44.43h-26.7l-20.55-36.36Z"/><path d="M946.2,187.79c5.5,4.74,8.25,12.97,8.25,24.68v57.25h-20.55l-2.63-13.17c-3.63,4.33-8.14,7.96-13.52,10.89-5.39,2.93-11.53,4.39-18.44,4.39-8.31,0-15.1-2.2-20.37-6.59-5.27-4.39-7.9-10.51-7.9-18.35v-8.78c0-6.91,2.34-12.29,7.03-16.16,4.68-3.86,11.18-5.8,19.5-5.8h30.91v-3.86c-.12-4.45-1.14-7.43-3.07-8.96-1.93-1.52-5.65-2.28-11.15-2.28-9.6,0-21.78,.47-36.53,1.4l-2.46-17.56c6.32-1.17,13.93-2.17,22.83-2.99,8.9-.82,16.33-1.23,22.3-1.23,11.71,0,20.31,2.37,25.82,7.11Zm-47.07,62.35c1.64,1.47,4.21,2.2,7.73,2.2,3.16,0,6.67-.73,10.54-2.2,3.86-1.46,7.55-3.54,11.07-6.23v-12.12h-23.36c-3.05,.12-5.21,.88-6.5,2.28-1.29,1.41-1.93,3.4-1.93,5.97v3.34c0,3.05,.82,5.3,2.46,6.76Z"/><path d="M1062.46,194.55l-10.71,1.41c1.29,3.16,1.93,7.32,1.93,12.47,0,6.79-1.29,12.18-3.86,16.16-2.58,3.98-6.82,6.91-12.73,8.78-5.91,1.87-13.96,2.81-24.15,2.81-5.15,0-10.19-.29-15.1-.88-.7,1.17-1.05,2.46-1.05,3.86,0,1.64,.53,3.07,1.58,4.3s2.63,1.96,4.74,2.2l31.44,3.69c8.9,1.05,15.31,3.63,19.23,7.73,3.92,4.1,5.88,10.13,5.88,18.09,0,7.49-1.47,13.26-4.39,17.3-2.93,4.04-7.61,6.85-14.05,8.43-6.44,1.58-15.46,2.37-27.05,2.37s-21.37-.82-27.92-2.46c-6.56-1.64-11.15-4.28-13.79-7.9-2.63-3.63-3.95-8.78-3.95-15.46,0-4.45,1.05-8.11,3.16-10.98,2.11-2.87,5.62-5.47,10.54-7.82-3.28-3.16-4.92-7.14-4.92-11.94,0-2.92,.67-5.77,2.02-8.52,1.34-2.75,3.25-4.83,5.71-6.24-4.45-2.11-7.7-5.06-9.75-8.87-2.05-3.8-3.07-8.63-3.07-14.49,0-6.91,1.29-12.35,3.86-16.33,2.57-3.98,6.82-6.91,12.73-8.78,5.91-1.87,14.02-2.81,24.33-2.81,9.72,0,17.39,.82,23.01,2.46h27.57l-1.23,11.42Zm-28.8,75.26c-.82-.99-2.14-1.7-3.95-2.11-1.82-.41-4.83-.85-9.04-1.32l-21.78-2.46c-1.99,1.76-3.42,3.37-4.3,4.83s-1.32,3.25-1.32,5.36c0,2.93,.55,5.06,1.67,6.41,1.11,1.34,3.07,2.25,5.88,2.72,2.81,.47,7.14,.7,13,.7s10.39-.24,13.26-.7c2.87-.47,4.89-1.38,6.06-2.72,1.17-1.35,1.76-3.37,1.76-6.06,0-2.11-.41-3.66-1.23-4.65Zm-7.64-52.6c2.4-1.64,3.6-4.57,3.6-8.78s-1.17-7.26-3.51-8.78c-2.34-1.52-6.73-2.28-13.17-2.28s-10.86,.76-13.26,2.28c-2.4,1.52-3.6,4.45-3.6,8.78s1.2,7.14,3.6,8.78c2.4,1.64,6.82,2.46,13.26,2.46s10.68-.82,13.08-2.46Z"/><path d="M1142.73,185.24c6.44,3.05,11.12,7.88,14.05,14.49,2.93,6.62,4.39,15.54,4.39,26.78s-1.46,20.14-4.39,26.7c-2.93,6.56-7.61,11.33-14.05,14.31-6.44,2.99-15.1,4.48-25.99,4.48s-19.73-1.49-26.17-4.48c-6.44-2.99-11.13-7.75-14.05-14.31-2.93-6.56-4.39-15.46-4.39-26.7s1.46-20.2,4.39-26.87c2.92-6.67,7.61-11.5,14.05-14.49,6.44-2.99,15.16-4.48,26.17-4.48s19.55,1.52,25.99,4.57Zm-36.71,17.12c-2.46,1.47-4.19,4.07-5.18,7.82-1,3.75-1.49,9.19-1.49,16.33s.5,12.38,1.49,16.07c.99,3.69,2.72,6.26,5.18,7.73,2.46,1.47,6.03,2.2,10.71,2.2s8.08-.73,10.54-2.2c2.46-1.46,4.18-4.04,5.18-7.73,.99-3.69,1.49-9.04,1.49-16.07s-.5-12.58-1.49-16.33c-1-3.75-2.72-6.35-5.18-7.82-2.46-1.46-5.97-2.2-10.54-2.2s-8.25,.73-10.71,2.2Z"/><path d="M1256.97,186.82c4.15,4.1,6.23,10.07,6.23,17.91v64.98h-25.82v-56.9c0-3.86-.62-6.53-1.84-7.99-1.23-1.46-3.42-2.2-6.59-2.2-3.4,0-6.91,.62-10.54,1.84-3.63,1.23-8.2,3.25-13.7,6.06l.18,59.19h-25.99v-86.59h21.08l1.93,12.82c12.41-10.19,24.76-15.28,37.06-15.28,7.84,0,13.84,2.05,18,6.15Z"/><path d="M1404.41,248.82l1.23,19.67c-7.26,.82-15.22,1.32-23.89,1.49-8.67,.18-19.44,.26-32.32,.26-8.08,0-14.52-2.2-19.32-6.59-4.8-4.39-7.26-10.33-7.38-17.83v-73.41c.12-7.49,2.57-13.44,7.38-17.83,4.8-4.39,11.24-6.59,19.32-6.59,12.88,0,23.65,.09,32.32,.26,8.66,.18,16.62,.68,23.89,1.49l-1.23,19.85h-46.54c-2.93,0-5.04,.7-6.32,2.11-1.29,1.4-1.93,3.69-1.93,6.85v18.44h48.3v19.32h-48.3v23.36c0,3.28,.64,5.62,1.93,7.02,1.29,1.41,3.39,2.11,6.32,2.11h46.54Z"/><path d="M1501.45,186.82c4.15,4.1,6.23,10.07,6.23,17.91v64.98h-25.82v-56.9c0-3.86-.62-6.53-1.84-7.99-1.23-1.46-3.42-2.2-6.59-2.2-3.4,0-6.91,.62-10.54,1.84-3.63,1.23-8.2,3.25-13.7,6.06l.18,59.19h-25.99v-86.59h21.08l1.93,12.82c12.41-10.19,24.76-15.28,37.06-15.28,7.84,0,13.84,2.05,18,6.15Z"/><path d="M1562.3,200.52v40.92c0,3.28,.7,5.56,2.11,6.85,1.41,1.29,3.86,1.93,7.38,1.93h11.07l2.81,18.09c-3.05,1.05-7,1.9-11.85,2.55-4.86,.64-9.04,.97-12.56,.97-7.85,0-13.94-2.2-18.27-6.59-4.33-4.39-6.5-10.51-6.5-18.35v-46.37h-15.28v-16.51l15.28-.88v-24.24h25.82v24.24h24.06v17.39h-24.06Z"/><path d="M1627.63,152.4v9.48c0,5.04-2.52,7.55-7.55,7.55h-11.59c-5.04,0-7.55-2.52-7.55-7.55v-9.48c0-5.03,2.52-7.55,7.55-7.55h11.59c5.03,0,7.55,2.52,7.55,7.55Zm-.35,117.32h-25.82v-86.59h25.82v86.59Z"/><path d="M1682.96,200.52v40.92c0,3.28,.7,5.56,2.11,6.85,1.41,1.29,3.86,1.93,7.38,1.93h11.07l2.81,18.09c-3.05,1.05-7,1.9-11.85,2.55-4.86,.64-9.04,.97-12.56,.97-7.85,0-13.94-2.2-18.27-6.59-4.33-4.39-6.5-10.51-6.5-18.35v-46.37h-15.28v-16.51l15.28-.88v-24.24h25.82v24.24h24.06v17.39h-24.06Z"/><path d="M1808,183.13l-30.74,87.82c-3.4,9.6-8.46,17.74-15.19,24.41-6.73,6.67-15.6,10.01-26.61,10.01-1.17,0-3.16-.12-5.97-.35l-2.11-15.28c7.03-1.87,12.53-4.3,16.51-7.29,3.98-2.99,7.08-7,9.31-12.03l.35-.7h-4.92c-1.99,0-3.75-.55-5.27-1.67-1.52-1.11-2.58-2.66-3.16-4.65l-28.28-80.26h27.75l16.16,56.03c1.05,4.1,1.93,8.43,2.63,13h2.28c1.05-3.4,2.22-7.73,3.51-13l15.98-56.03h27.75Z"/></g><g><path d="M458.68,207.65l-112.12,205.25H117.73L0,207.65,117.73,2.4,342.48,.28l116.2,207.36Zm-280.11,100.09h109.46l54.73-98.39-54.73-98.39h-109.46l-54.73,98.39,54.73,98.39Z" style="fill:#110d16;"/><path d="M342.48,.28H118.24L0,207.65s105.76,67.16,173.16-64.28C240.55,11.94,342.48,.28,342.48,.28Z" style="fill:url(#Nepojmenovaný_přechod_2);"/><path d="M346.56,412.89l113.79-204.42L342.55,0s-107.28,61.04-29.98,188.38c77.3,127.34,33.98,224.51,33.98,224.51Z" style="fill:url(#Nepojmenovaný_přechod_3);"/><path d="M0,207.65l114.71,206.35,231.85-1.11s5.29-127.32-140.37-122.03C60.51,296.16,0,207.65,0,207.65Z" style="fill:url(#Nepojmenovaný_přechod_4);"/></g><path d="M1834.2,169.52c0,2.51-.56,4.79-1.68,6.84-1.12,2.05-2.71,3.67-4.78,4.86-2.07,1.19-4.47,1.78-7.22,1.78s-5.11-.59-7.18-1.78-3.66-2.81-4.78-4.86c-1.12-2.05-1.68-4.33-1.68-6.84s.56-4.87,1.68-6.94c1.12-2.07,2.71-3.69,4.78-4.88s4.46-1.78,7.18-1.78,5.15,.59,7.22,1.78c2.07,1.19,3.66,2.81,4.78,4.88,1.12,2.07,1.68,4.38,1.68,6.94Zm-23.52-.04c0,1.89,.39,3.6,1.18,5.12,.79,1.52,1.93,2.71,3.42,3.58,1.49,.87,3.24,1.3,5.24,1.3s3.75-.44,5.26-1.32c1.51-.88,2.66-2.07,3.46-3.58s1.2-3.21,1.2-5.1-.4-3.67-1.2-5.18c-.8-1.51-1.95-2.69-3.44-3.54s-3.25-1.28-5.28-1.28-3.75,.43-5.24,1.28c-1.49,.85-2.63,2.03-3.42,3.54-.79,1.51-1.18,3.23-1.18,5.18Zm16.44,7.2h-4.44l-2.12-5.08h-1.8v5.08h-3.92v-14.64h5.96c1.71,0,3.14,.4,4.3,1.2,1.16,.8,1.74,1.97,1.74,3.52,0,.88-.23,1.66-.68,2.34-.45,.68-1.05,1.23-1.8,1.66l2.76,5.92Zm-7.04-11.48h-1.32v3.32h1.32c1.68,0,2.52-.56,2.52-1.68,0-.64-.21-1.07-.62-1.3-.41-.23-1.05-.34-1.9-.34Z" style="fill:#1d1d1b;"/></g></g></svg>